<svg version="1.2" xmlns="http://www.w3.org/2000/svg" viewBox="0 0 123 97" width="40" height="40">
	<title>livro-svg</title>
	<style>
		.s0 { fill: #da5652 } 
		.s1 { fill: #2e2e2e } 
	</style>
	<g>
		<path class="s0" d="m108.8 14.3q0-0.2 0-0.5 0-0.3 0-0.6v-12.5c-8.7-0.8-17.8 0.1-25.7 3.1-7.3 2.8-13.7 7.4-17.8 14v71.2c6.4-4.3 13-7.9 19.7-10.3 7.7-2.7 15.6-4 23.8-3.4zm-51.1 73.9v-70.5c-4-7-10.4-11.7-17.6-14.5-8.2-3.1-17.5-3.8-25.5-2.7l-0.4 75.1c8.7-0.3 17.3 0.8 25.4 3.4 6.4 2.1 12.5 5.2 18.1 9.2z"/>
		<path class="s1" d="m6.6 79.3l0.4-61.7h-7v78.5c9.6-2.5 19.2-4.1 28.9-4.1 8.9-0.1 17.8 1.1 26.8 4.2-5.6-4.5-11.8-7.9-18.4-10-8.3-2.7-17.4-3.6-26.6-2.8-2.1 0.1-3.9-1.4-4.1-3.5q0-0.3 0-0.6zm62.4 16.3c8.3-2.6 16.7-3.7 25-3.7 9.7 0.1 19.3 1.7 28.9 4.1v-78.4h-6.5v62c0 2.1-1.7 3.8-3.8 3.8q-0.4 0-0.9-0.1c-8.3-1.3-16.3-0.2-24.1 2.6-6.3 2.2-12.5 5.6-18.6 9.7z"/>
	</g>
</svg>